<svg
    id="ePLF1RO57bJ1"
    xmlns="http://www.w3.org/2000/svg"
    xmlns:xlink="http://www.w3.org/1999/xlink"
    viewBox="0 0 250 250"
    shape-rendering="geometricPrecision"
    text-rendering="geometricPrecision"
>
    <g>
        <g id="ePLF1RO57bJ3">
            <path
                d="M249.486,124.993c0,68.756-55.737,124.493-124.493,124.493C56.2374,249.486,0.5,193.749,0.5,124.993C0.5,56.2374,56.2374,0.5,124.993,0.5c68.756,0,124.493,55.7374,124.493,124.493Z"
                fill="#f7df1e" stroke="#000" />
            <path
                d="M15.0055,97.5135c.4172-1.5854,1.0847-2.7258,2.0165-3.435s2.072-.8761,3.4349-.5145c.4311.1112.8205.2781,1.1682.5006s.6536.4589.9039.7231c.2503.2643.445.5702.5841.8901.139.3198.2225.6536.2503.9873l.5006.1391c.1113-.1808.2225-.3477.3616-.5006.1252-.1391.292-.2643.4728-.3616s.3894-.1669.6119-.2225.4728-.0695.751-.0417l4.464.2364-.8205,3.0873-3.7131-.2921c-.2503-.0278-.4728-.0139-.6675.0278s-.3476.1113-.4728.2225c-.1252.1113-.2364.2365-.3199.3894s-.1529.3338-.2086.5424l-.5562,2.1135l4.8256,1.28-.751,2.864-14.1152-3.74l1.2933-4.8816-.0139-.0139Zm6.7308.7648c0-.2781-.0695-.5284-.1808-.7648s-.292-.4451-.5284-.6259-.5285-.3198-.8762-.4171c-.3615-.0974-.6814-.1113-.9456-.0696-.2642.0556-.4867.1669-.6814.3338-.1808.1669-.3477.3894-.4729.6536-.1251.2642-.2364.5702-.3198.89l-.5285,1.9747l3.8522,1.015.5702-2.1414c.0834-.292.1112-.5841.1112-.8622v.0139Z"
                fill="#fa5651" />
            <path
                d="M30.9008,87.1947l-8.1771-3.574-1.2516,2.8648-2.6005-1.1404l3.7131-8.483l2.6005,1.1403-1.2516,2.8648l8.1771,3.574l1.2516-2.8648l2.6006,1.1404-3.7131,8.483-2.6006-1.1403l1.2516-2.8648Z"
                fill="#fa5651" />
            <path
                d="M34.1968,75.9304l-.598-.3755l1.5576-2.4754c.1251.0834.2642.1669.3893.2503.1252.0834.2643.1669.4033.2503.598.3755,1.1682.4311,1.6967.153s1.0151-.7649,1.4462-1.4463c.2365-.3755.4172-.7092.5285-1.0152.1113-.292.1669-.5701.153-.8344c0-.2503-.0835-.4728-.2225-.6814-.1391-.1947-.3477-.3755-.6119-.5424-.1947-.1251-.3894-.2086-.5841-.2503-.1808-.0417-.3755-.0556-.5563-.0139-.1808.0278-.3615.0974-.5423.2086-.1808.1113-.3477.2503-.5285.4311l-2.3641,2.3363c-.4172.4172-.8344.7371-1.2655.9596s-.8622.3616-1.2933.4172-.8762.0278-1.3073-.0834-.8483-.2921-1.2516-.5424c-.5006-.3199-.9178-.7092-1.2377-1.1821-.3198-.4728-.5284-1.0012-.6119-1.5853-.0973-.5841-.0556-1.2238.1113-1.9052.1669-.6815.5006-1.4046.9735-2.1695.4728-.7509.9873-1.3628,1.5297-1.8357.5424-.4728,1.0847-.8065,1.641-.9873.5423-.1947,1.0986-.2504,1.641-.1669.5423.0695,1.0569.2642,1.5436.5702.1947.1112.3616.2364.5424.3337s.3476.2225.5145.3338l-1.5575,2.4754c-.0835-.0557-.1669-.1113-.2504-.1669s-.1668-.1113-.2503-.1669c-.3476-.2225-.6675-.3338-.9595-.3616-.2921-.0278-.5702.0139-.8344.1252-.2503.0973-.4868.2642-.6954.5006s-.4172.5007-.6119.8066c-.1668.2642-.3059.5424-.4172.8066s-.1668.5285-.1807.7649c0,.2364.0417.4728.1529.6814.0974.2086.2921.4033.5424.5702.153.0973.3059.1669.4589.2225s.3199.0556.5006.0278.3616-.0974.5563-.2225c.1947-.1113.4172-.2921.6536-.5424l2.1556-2.1972c.4172-.4311.8344-.7649,1.2655-1.0152.4172-.2503.8622-.4033,1.2933-.4728.445-.0696.9039-.0418,1.3628.0556.4729.1112.9457.3059,1.4185.6119.5841.3755,1.0569.8066,1.4046,1.3211.3477.5146.5702,1.0708.6536,1.6827.0973.6258.0417,1.2794-.1391,2.0026-.1808.7092-.5284,1.4602-1.0291,2.2529-.5701.9039-1.1681,1.5992-1.7661,2.0581-.598.459-1.2099.7788-1.794.9179-.584.139-1.1403.153-1.6688.0417s-.9873-.3059-1.3906-.5563c-.1808-.1251-.3755-.2364-.5841-.3615l.0139-.0139Z"
                fill="#fa5651" />
            <path
                d="M47.5469,56.7252c-.1946-.0417-.3893-.0556-.5562,0-.1808.0417-.3338.1113-.4868.2364-.139.1113-.3059.2643-.4728.445l-1.1125,1.2656l4.3945,3.8799-1.9608,2.2251-10.9446-9.6791l1.9609-2.225l4.4084,3.8938l1.1125-1.2655c.153-.1668.2781-.3337.3755-.4867.0973-.153.1669-.3198.1808-.4728s0-.3338-.0696-.5146c-.0695-.1808-.1947-.3894-.3615-.6119l-2.9065-3.6296l2.0442-2.3085l2.9483,3.7548c.139.1808.2642.3755.3615.5702.1113.2086.1808.4172.2086.6397s.0418.4589.0278.7231c0,.2642-.0695.5285-.1529.8205l.3894.3477c.2225-.1252.445-.2225.6536-.2782s.4172-.0834.6397-.0834.445.0417.6814.1113.4867.1807.751.3059l4.7839,2.3363-2.1556,2.4337-4.0746-2.1555c-.2504-.1252-.4868-.2226-.6815-.2643l.0139-.0139Z"
                fill="#fa5651" />
            <path
                d="M64.7081,29.9966l1.6132,2.3364-5.368,3.6852l1.8079,2.6284l5.1872-3.5601l1.5575,2.2668-5.1872,3.574l3.2959,4.7978-2.4476,1.6827-8.2744-12.0293l7.8016-5.3679.0139-.014Z"
                fill="#fa5651" />
            <path
                d="M75.9027,23.9473c1.4741-.7093,2.7813-.9457,3.9217-.6954c1.1403.2365,2.0025,1.0013,2.6283,2.2807.1947.4033.3199.8066.3894,1.2099s.0696.7927.0278,1.1543-.139.6953-.292,1.0152-.3477.5979-.598.8344l.2225.4728c.2086-.0417.4172-.0556.6119-.0556s.3894.0556.5841.1251.3755.1808.5563.3199.3615.3198.5284.5423l2.7257,3.5462-2.8787,1.3768-2.1833-3.0178c-.1391-.2086-.292-.3754-.4589-.4867-.153-.1112-.3199-.1947-.4728-.2225-.1669-.0278-.3338-.0278-.5007,0-.1808.0417-.3616.0973-.5423.1947l-1.9748.9456l2.1555,4.4919-2.67,1.2794-6.3137-13.1696l4.5475-2.1833-.0139.0417Zm3.7826,5.6183c.2086-.1808.3616-.3894.4589-.6397.0974-.2365.1391-.5146.1391-.8066s-.0973-.6119-.2503-.9318c-.1669-.3337-.3477-.598-.5563-.7648s-.445-.2643-.6953-.306c-.2503-.0278-.5146,0-.8066.0556-.292.0557-.5841.1808-.8761.3338l-1.8496.89l1.7244,3.5879l1.9887-.9595c.2781-.1252.5145-.2921.7231-.4728v.0139Z"
                fill="#fa5651" />
            <path
                d="M96.9436,16.2012l.8205,2.7118-6.1745,1.8496.8622,2.8926l5.9799-1.794.7926,2.6423-5.9798,1.794.9039,3.0177l6.1746-1.8496.82,2.7118-9.0111,2.6979-4.1998-13.9901l9.0115-2.6979v.0139Z"
                fill="#fa5651" />
            <path
                d="M113.854,13.2391l.389,2.8092-6.383.89.417,2.9899l6.175-.8622.376,2.7257-6.175.8622.431,3.1151l6.383-.89.39,2.8091-9.318,1.3073-2.03-14.463l9.317-1.3072.028.0139Z"
                fill="#fa5651" />
            <path
                d="M131.307,15.6728l.306-2.8231l11.153,1.196-.306,2.8231-4.019-.4312-1.252,11.6955-3.115-.3337l1.252-11.6955-4.019-.4311Z"
                fill="#fa5651" />
            <path
                d="M155.059,16.8271c1.586.4311,2.726,1.1125,3.421,2.0442.696.9318.863,2.0721.487,3.435-.111.4311-.292.8205-.501,1.1681-.222.3477-.458.6536-.737.8901-.264.2503-.57.4311-.89.584-.319.153-.653.2226-1.001.2504l-.139.5006c.181.1113.348.2364.501.3616.139.139.264.292.361.4728.098.1808.167.3894.209.6119s.055.4728.042.751l-.279,4.464-3.073-.8483.334-3.7131c.028-.2503.014-.4728-.028-.6675s-.111-.3477-.209-.4728c-.097-.1252-.236-.2365-.389-.3199s-.334-.153-.542-.2086l-2.114-.5841-1.321,4.8117-2.851-.7787l3.866-14.0736l4.867,1.3351-.014-.0139Zm-.834,6.7308c.278,0,.528-.0696.765-.1808.236-.1113.445-.292.626-.5146.18-.2364.319-.5145.417-.8622.097-.3615.125-.6814.069-.9456-.055-.2642-.153-.4868-.32-.6814-.166-.1947-.375-.3477-.653-.4729-.264-.1251-.556-.2364-.89-.3337l-1.975-.5424-1.057,3.8382l2.128.5841c.292.0835.584.1252.848.1113h.042Z"
                fill="#fa5651" />
            <path
                d="M165.211,32.8197l3.658-8.1493-2.851-1.2794l1.154-2.5867l8.455,3.7826-1.154,2.5867-2.851-1.2794-3.657,8.1493l2.851,1.2794-1.155,2.5866-8.455-3.7826l1.154-2.5866l2.851,1.2794Z"
                fill="#fa5651" />
            <path
                d="M189.242,32.6667l-5.549,13.7954-2.517-1.627l1.071-2.684-4.047-2.6145-2.016,2.0721-2.434-1.5714l10.388-10.6665l5.118,3.3098-.014-.0139Zm-5.938,7.0368l2.392-5.9521-1.168-.7648-4.492,4.6031l3.268,2.1138Z"
                fill="#fa5651" />
            <path
                d="M199.394,40.5518l-7.802,8.8168l4.464,3.9495-1.877,2.1277-6.689-5.9103l9.679-10.9306l2.225,1.9608v-.0139Z"
                fill="#fa5651" />
            <path
                d="M221.046,65.4586l-2.322,1.6271-3.727-5.3401-2.614,1.8356l3.615,5.1594-2.253,1.5715-3.615-5.1594-4.77,3.3376-1.697-2.4337l11.96-8.3718l5.423,7.7599v.0139Z"
                fill="#fa5651" />
            <path
                d="M220.991,73.6636c.987-.0835,1.919.0139,2.823.3198.904.2921,1.738.7927,2.503,1.488s1.419,1.5854,1.933,2.684c.515,1.0986.793,2.1555.835,3.1985.041,1.0291-.112,1.9887-.459,2.8787-.348.89-.863,1.6827-1.558,2.3781s-1.502,1.2655-2.434,1.7105c-.917.4311-1.863.6953-2.836.7927-.974.0973-1.906,0-2.81-.2782-.89-.292-1.738-.7788-2.517-1.4741s-1.432-1.6132-1.974-2.7396c-.543-1.1264-.821-2.2251-.849-3.2681s.125-2.0025.473-2.8786c.348-.8762.876-1.6549,1.572-2.3364.695-.6953,1.501-1.2516,2.419-1.6827.932-.4311,1.892-.6953,2.865-.7787l.014-.0139Zm3.991,10.7637c.445-.445.765-.9178.974-1.4463.208-.5284.292-1.0986.25-1.7105s-.223-1.2516-.529-1.9191c-.305-.6675-.695-1.2099-1.14-1.6271s-.932-.7231-1.474-.89-1.126-.2364-1.738-.1669c-.612.0556-1.252.2503-1.906.5563-.542.2503-1.029.584-1.474.9873s-.778.8762-1.029,1.3907c-.25.5285-.361,1.0986-.361,1.7522c0,.6397.18,1.3351.514,2.0582.348.7232.765,1.3073,1.252,1.7105.5.4172,1.015.6954,1.585.8344.57.1391,1.141.1808,1.739.0974s1.168-.2503,1.696-.5006c.654-.306,1.196-.6815,1.641-1.1126v-.0139Z"
                fill="#fa5651" />
            <path
                d="M234.981,97.4301c.417,1.5853.403,2.9199-.042,3.9769s-1.363,1.78-2.739,2.142c-.432.111-.849.167-1.266.153-.417,0-.793-.07-1.14-.181-.348-.111-.668-.278-.946-.487-.278-.208-.528-.458-.709-.737l-.501.139c0,.223-.028.418-.069.612-.042.195-.126.376-.237.543s-.25.333-.417.486-.375.292-.64.418l-4.005,2.002-.82-3.087l3.379-1.585c.236-.112.417-.223.57-.348.139-.139.25-.278.306-.431s.084-.32.084-.501-.028-.375-.084-.57l-.556-2.1138-4.826,1.2794-.751-2.8648l14.116-3.7409l1.293,4.8813v.0139Zm-6.23,2.6699c.139.237.32.431.542.57.223.139.473.237.765.278.292.042.612.014.959-.069.362-.097.64-.237.849-.403.208-.167.347-.39.431-.6262.083-.2364.111-.5006.083-.8066-.028-.292-.069-.6119-.153-.9317l-.528-1.9748-3.852,1.0152.57,2.1416c.083.2921.195.5563.334.7925v.014Z"
                fill="#fa5651" />
            <path
                d="M56.3776,191.55l-2.086,1.919-4.4084-4.783-2.3502,2.155l4.2693,4.631-2.0303,1.863-4.2694-4.63-4.2832,3.935-2.0026-2.183l10.7359-9.888l6.411,6.967.0139.014Z"
                fill="#fa5651" />
            <path
                d="M55.0565,206.013l5.6044-6.953-2.4337-1.961l1.7801-2.211l7.2175,5.813-1.78,2.211-2.4337-1.961-5.6044,6.954l2.4337,1.96-1.7801,2.212-7.2175-5.813l1.78-2.212l2.4337,1.961Z"
                fill="#fa5651" />
            <path
                d="M79.5879,208.502l-1.4602,2.434-5.5905-3.337-1.641,2.739l5.4097,3.227-1.4185,2.364-5.4097-3.227-2.9899,4.993-2.5449-1.516l7.4957-12.53l8.1354,4.853h.0139Z"
                fill="#fa5651" />
            <path
                d="M82.8003,213.356l1.0847-2.615l10.3604,4.298-1.0847,2.614-3.7409-1.544-4.5057,10.862-2.8926-1.196l4.5057-10.862-3.7409-1.543.014-.014Z"
                fill="#fa5651" />
            <path
                d="M108.138,218.78l-.681,2.753-6.258-1.544-.723,2.935l6.049,1.502-.653,2.67-6.0497-1.502-.751,3.059l6.2577,1.544-.681,2.753-9.1368-2.253l3.5045-14.17l9.1363,2.253h-.014Z"
                fill="#fa5651" />
            <path
                d="M122.657,220.434l-.236,2.823-6.425-.542-.251,3.018l6.217.528-.237,2.74-6.216-.529-.264,3.143l6.425.543-.237,2.823-9.373-.793l1.224-14.546l9.373.792Z"
                fill="#fa5651" />
            <path
                d="M131.474,220.101l5.354,9.428.431-.041-.236-1.906-.793-7.954l2.837-.278l1.446,14.532-3.963.39-5.104-9.012-.431.042.222,1.849.751,7.579-2.837.279-1.446-14.533l3.755-.375h.014Z"
                fill="#fa5651" />
            <path
                d="M157.076,214.371c1.224-.473,2.336-.667,3.365-.612c1.015.056,1.947.306,2.754.723.82.418,1.516.988,2.1,1.711s1.029,1.488,1.335,2.294c.361.932.542,1.878.542,2.824c0,.945-.167,1.835-.515,2.697-.347.863-.89,1.628-1.613,2.323s-1.641,1.251-2.739,1.683l-4.2,1.613-5.229-13.629l4.2-1.613v-.014Zm-.417,3.199l3.198,8.33l1.419-.543c.695-.264,1.251-.612,1.682-1.029s.751-.89.946-1.404c.195-.515.278-1.057.264-1.627-.028-.571-.153-1.141-.361-1.711-.209-.542-.501-1.029-.863-1.474-.361-.431-.792-.779-1.279-1.029s-1.043-.389-1.641-.417-1.252.083-1.947.361l-1.418.543Z"
                fill="#fa5651" />
            <path
                d="M175.335,205.526l9.735,11.251-2.601,1.502-1.905-2.183-4.172,2.405.918,2.74-2.517,1.446-4.742-14.115l5.284-3.032v-.014Zm3.533,8.511l-4.2-4.853-1.21.695l2.03,6.091l3.38-1.947v.014Z"
                fill="#fa5651" />
            <path
                d="M179.827,202.787l2.601-2.03l6.313,3.56.473-.376-1.975-6.953l2.545-1.989l2.796,11.167l2.517,3.227-2.587,2.016-2.517-3.226-10.166-5.396Z"
                fill="#fa5651" />
            <path
                d="M199.686,199.296c-.167-.167-.348-.32-.515-.486l1.989-2.142c.111.097.222.209.334.306.111.097.236.208.347.32.515.486,1.071.639,1.627.459.557-.181,1.127-.557,1.697-1.168.306-.32.542-.626.709-.904.167-.279.264-.529.306-.793.028-.25,0-.487-.097-.709-.098-.223-.264-.431-.501-.654-.167-.167-.347-.278-.528-.362-.181-.083-.362-.111-.543-.125-.18,0-.375.028-.57.098-.194.069-.389.18-.598.32l-2.753,1.863c-.473.334-.946.57-1.419.709-.459.139-.918.195-1.349.167-.445-.028-.862-.139-1.265-.32-.404-.181-.779-.445-1.127-.765-.445-.403-.765-.876-1.001-1.39-.236-.515-.334-1.085-.32-1.669s.167-1.21.459-1.85c.292-.639.737-1.293,1.363-1.96.612-.654,1.224-1.155,1.836-1.516.625-.362,1.223-.584,1.794-.668.57-.083,1.126-.042,1.641.125.528.167.987.459,1.418.835.167.153.32.292.473.431s.292.278.445.417l-1.989,2.142c-.069-.07-.139-.139-.222-.209-.084-.069-.153-.139-.223-.209-.292-.278-.584-.445-.876-.528s-.57-.083-.834-.028c-.264.056-.529.181-.779.362-.25.194-.501.417-.751.681-.223.237-.403.473-.57.709-.153.237-.264.487-.306.724-.056.236-.042.472.014.695.055.236.208.445.431.654.139.125.278.222.417.305.139.084.306.126.487.126s.375-.028.584-.112c.208-.069.459-.208.737-.417l2.517-1.766c.487-.348.96-.598,1.419-.765.458-.167.917-.25,1.362-.222.445.014.89.125,1.335.306.445.194.863.472,1.294.862.514.473.89.987,1.14,1.557.25.557.362,1.155.334,1.78-.028.626-.195,1.28-.501,1.933-.32.668-.792,1.335-1.418,2.031-.723.792-1.433,1.349-2.114,1.71-.682.348-1.335.543-1.933.571-.598.027-1.14-.056-1.641-.265-.501-.208-.918-.473-1.266-.806-.166-.153-.333-.306-.5-.473v.083Z"
                fill="#fa5651" />
            <path
                d="M235.648,144.907c-11.056,1.836-12.335,3.31-13.906,16.188-1.572-12.878-2.851-14.352-13.907-16.188c11.056-1.835,12.335-3.309,13.907-16.187c1.571,12.878,2.85,14.352,13.906,16.187Z"
                fill="#8cc84b" />
            <path
                d="M42.3182,144.907c-11.0558,1.836-12.3352,3.31-13.9067,16.188-1.5714-12.878-2.8508-14.352-13.9066-16.188c11.0558-1.835,12.3352-3.309,13.9066-16.187c1.5715,12.878,2.8509,14.352,13.9067,16.187Z"
                fill="#8cc84b" />
        </g>
        <g id="ePLF1RO57bJ34">
            <path d="M127.413,57.2537h-5.563v135.4783h5.563v-135.4783Z" fill="#3178c6" />
            <path d="M113.335,58.1591l-5.441,1.1566L136.061,191.834l5.441-1.157L113.335,58.1591Z"
                fill="#3178c6" />
            <path d="M99.7756,61.9436l-5.0818,2.2626L149.798,187.972l5.082-2.262L99.7756,61.9436Z"
                fill="#3178c6" />
            <path d="M87.2688,68.4844L82.7686,71.754L162.401,181.359l4.5-3.27L87.2688,68.4844Z"
                fill="#3178c6" />
            <path d="M76.4282,77.4772l-3.7221,4.1339L173.386,172.264l3.722-4.134L76.4282,77.4772Z"
                fill="#3178c6" />
            <path d="M67.6793,88.5376L64.8979,93.355L182.226,161.094l2.781-4.817L67.6793,88.5376Z"
                fill="#3178c6" />
            <path d="M61.403,101.157l-1.7189,5.29L188.532,148.313l1.719-5.291L61.403,101.157Z"
                fill="#3178c6" />
            <path d="M57.9213,114.816l-.5815,5.532L192.076,134.509l.582-5.532L57.9213,114.816Z"
                fill="#3178c6" />
            <path d="M192.074,114.735L57.3374,128.896l.5815,5.532L192.655,120.267l-.581-5.532Z"
                fill="#3178c6" />
            <path d="M188.541,100.938L59.6929,142.803l1.7189,5.291L190.26,106.228l-1.719-5.29Z"
                fill="#3178c6" />
            <path d="M182.227,88.18L64.8867,155.899l2.7805,4.818L185.007,92.9979l-2.78-4.8179Z"
                fill="#3178c6" />
            <path d="M173.378,76.9806L72.6978,167.633l3.7221,4.134L177.1,81.1144l-3.722-4.1338Z"
                fill="#3178c6" />
            <path d="M162.408,67.8781L82.7759,177.483l4.5003,3.269L166.909,71.1477l-4.501-3.2696Z"
                fill="#3178c6" />
            <path d="M149.79,61.279L94.686,185.045l5.0818,2.262L154.872,63.5415L149.79,61.279Z"
                fill="#3178c6" />
            <path d="M136.08,57.4275L107.89,189.941l5.441,1.157l28.19-132.513-5.441-1.1575Z"
                fill="#3178c6" />
            <path
                d="M141.623,128.283c2.227-9.488-3.66-18.986-13.148-21.213-9.489-2.227-18.986,3.659-21.214,13.148-2.227,9.488,3.66,18.986,13.148,21.213c9.489,2.227,18.986-3.659,21.214-13.148Z" />
        </g>
    </g>
    <script><![CDATA[
!function(t,n){"object"==typeof exports&&"undefined"!=typeof module?module.exports=n():"function"==typeof __SVGATOR_DEFINE__&&__SVGATOR_DEFINE__.amd?__SVGATOR_DEFINE__(n):((t="undefined"!=typeof globalThis?globalThis:t||self).__SVGATOR_PLAYER__=t.__SVGATOR_PLAYER__||{},t.__SVGATOR_PLAYER__["5c7f360c"]=n())}(this,(function(){"use strict";function t(t,n){var e=Object.keys(t);if(Object.getOwnPropertySymbols){var r=Object.getOwnPropertySymbols(t);n&&(r=r.filter((function(n){return Object.getOwnPropertyDescriptor(t,n).enumerable}))),e.push.apply(e,r)}return e}function n(n){for(var e=1;e<arguments.length;e++){var r=null!=arguments[e]?arguments[e]:{};e%2?t(Object(r),!0).forEach((function(t){u(n,t,r[t])})):Object.getOwnPropertyDescriptors?Object.defineProperties(n,Object.getOwnPropertyDescriptors(r)):t(Object(r)).forEach((function(t){Object.defineProperty(n,t,Object.getOwnPropertyDescriptor(r,t))}))}return n}function e(t){return(e="function"==typeof Symbol&&"symbol"==typeof Symbol.iterator?function(t){return typeof t}:function(t){return t&&"function"==typeof Symbol&&t.constructor===Symbol&&t!==Symbol.prototype?"symbol":typeof t})(t)}function r(t,n){if(!(t instanceof n))throw new TypeError("Cannot call a class as a function")}function i(t,n){for(var e=0;e<n.length;e++){var r=n[e];r.enumerable=r.enumerable||!1,r.configurable=!0,"value"in r&&(r.writable=!0),Object.defineProperty(t,r.key,r)}}function o(t,n,e){return n&&i(t.prototype,n),e&&i(t,e),t}function u(t,n,e){return n in t?Object.defineProperty(t,n,{value:e,enumerable:!0,configurable:!0,writable:!0}):t[n]=e,t}function a(t){return(a=Object.setPrototypeOf?Object.getPrototypeOf:function(t){return t.__proto__||Object.getPrototypeOf(t)})(t)}function l(t,n){return(l=Object.setPrototypeOf||function(t,n){return t.__proto__=n,t})(t,n)}function s(){if("undefined"==typeof Reflect||!Reflect.construct)return!1;if(Reflect.construct.sham)return!1;if("function"==typeof Proxy)return!0;try{return Boolean.prototype.valueOf.call(Reflect.construct(Boolean,[],(function(){}))),!0}catch(t){return!1}}function f(t,n,e){return(f=s()?Reflect.construct:function(t,n,e){var r=[null];r.push.apply(r,n);var i=new(Function.bind.apply(t,r));return e&&l(i,e.prototype),i}).apply(null,arguments)}function c(t,n){if(n&&("object"==typeof n||"function"==typeof n))return n;if(void 0!==n)throw new TypeError("Derived constructors may only return object or undefined");return function(t){if(void 0===t)throw new ReferenceError("this hasn't been initialised - super() hasn't been called");return t}(t)}function h(t,n,e){return(h="undefined"!=typeof Reflect&&Reflect.get?Reflect.get:function(t,n,e){var r=function(t,n){for(;!Object.prototype.hasOwnProperty.call(t,n)&&null!==(t=a(t)););return t}(t,n);if(r){var i=Object.getOwnPropertyDescriptor(r,n);return i.get?i.get.call(e):i.value}})(t,n,e||t)}function v(t){return function(t){if(Array.isArray(t))return y(t)}(t)||function(t){if("undefined"!=typeof Symbol&&null!=t[Symbol.iterator]||null!=t["@@iterator"])return Array.from(t)}(t)||function(t,n){if(!t)return;if("string"==typeof t)return y(t,n);var e=Object.prototype.toString.call(t).slice(8,-1);"Object"===e&&t.constructor&&(e=t.constructor.name);if("Map"===e||"Set"===e)return Array.from(t);if("Arguments"===e||/^(?:Ui|I)nt(?:8|16|32)(?:Clamped)?Array$/.test(e))return y(t,n)}(t)||function(){throw new TypeError("Invalid attempt to spread non-iterable instance.\nIn order to be iterable, non-array objects must have a [Symbol.iterator]() method.")}()}function y(t,n){(null==n||n>t.length)&&(n=t.length);for(var e=0,r=new Array(n);e<n;e++)r[e]=t[e];return r}Number.isInteger||(Number.isInteger=function(t){return"number"==typeof t&&isFinite(t)&&Math.floor(t)===t}),Number.EPSILON||(Number.EPSILON=2220446049250313e-31);var g=d(Math.pow(10,-6));function d(t){var n=arguments.length>1&&void 0!==arguments[1]?arguments[1]:6;if(Number.isInteger(t))return t;var e=Math.pow(10,n);return Math.round((+t+Number.EPSILON)*e)/e}function p(t,n){var e=arguments.length>2&&void 0!==arguments[2]?arguments[2]:g;return Math.abs(t-n)<e}var m=Math.PI/180;function b(t){return t}function w(t,n,e){var r=1-e;return 3*e*r*(t*r+n*e)+e*e*e}function A(){var t=arguments.length>0&&void 0!==arguments[0]?arguments[0]:0,n=arguments.length>1&&void 0!==arguments[1]?arguments[1]:0,e=arguments.length>2&&void 0!==arguments[2]?arguments[2]:1,r=arguments.length>3&&void 0!==arguments[3]?arguments[3]:1;return t<0||t>1||e<0||e>1?null:p(t,n)&&p(e,r)?b:function(i){if(i<=0)return t>0?i*n/t:0===n&&e>0?i*r/e:0;if(i>=1)return e<1?1+(i-1)*(r-1)/(e-1):1===e&&t<1?1+(i-1)*(n-1)/(t-1):1;for(var o,u=0,a=1;u<a;){var l=w(t,e,o=(u+a)/2);if(p(i,l))break;l<i?u=o:a=o}return w(n,r,o)}}function _(){return 1}function x(t){return 1===t?1:0}function k(){var t=arguments.length>0&&void 0!==arguments[0]?arguments[0]:1,n=arguments.length>1&&void 0!==arguments[1]?arguments[1]:0;if(1===t){if(0===n)return x;if(1===n)return _}var e=1/t;return function(t){return t>=1?1:(t+=n*e)-t%e}}var S=Math.sin,O=Math.cos,j=Math.acos,E=Math.asin,M=Math.tan,P=Math.atan2,I=Math.PI/180,R=180/Math.PI,F=Math.sqrt,N=function(){function t(){var n=arguments.length>0&&void 0!==arguments[0]?arguments[0]:1,e=arguments.length>1&&void 0!==arguments[1]?arguments[1]:0,i=arguments.length>2&&void 0!==arguments[2]?arguments[2]:0,o=arguments.length>3&&void 0!==arguments[3]?arguments[3]:1,u=arguments.length>4&&void 0!==arguments[4]?arguments[4]:0,a=arguments.length>5&&void 0!==arguments[5]?arguments[5]:0;r(this,t),this.m=[n,e,i,o,u,a],this.i=null,this.w=null,this.s=null}return o(t,[{key:"determinant",get:function(){var t=this.m;return t[0]*t[3]-t[1]*t[2]}},{key:"isIdentity",get:function(){if(null===this.i){var t=this.m;this.i=1===t[0]&&0===t[1]&&0===t[2]&&1===t[3]&&0===t[4]&&0===t[5]}return this.i}},{key:"point",value:function(t,n){var e=this.m;return{x:e[0]*t+e[2]*n+e[4],y:e[1]*t+e[3]*n+e[5]}}},{key:"translateSelf",value:function(){var t=arguments.length>0&&void 0!==arguments[0]?arguments[0]:0,n=arguments.length>1&&void 0!==arguments[1]?arguments[1]:0;if(!t&&!n)return this;var e=this.m;return e[4]+=e[0]*t+e[2]*n,e[5]+=e[1]*t+e[3]*n,this.w=this.s=this.i=null,this}},{key:"rotateSelf",value:function(){var t=arguments.length>0&&void 0!==arguments[0]?arguments[0]:0;if(t%=360){var n=S(t*=I),e=O(t),r=this.m,i=r[0],o=r[1];r[0]=i*e+r[2]*n,r[1]=o*e+r[3]*n,r[2]=r[2]*e-i*n,r[3]=r[3]*e-o*n,this.w=this.s=this.i=null}return this}},{key:"scaleSelf",value:function(){var t=arguments.length>0&&void 0!==arguments[0]?arguments[0]:1,n=arguments.length>1&&void 0!==arguments[1]?arguments[1]:1;if(1!==t||1!==n){var e=this.m;e[0]*=t,e[1]*=t,e[2]*=n,e[3]*=n,this.w=this.s=this.i=null}return this}},{key:"skewSelf",value:function(t,n){if(n%=360,(t%=360)||n){var e=this.m,r=e[0],i=e[1],o=e[2],u=e[3];t&&(t=M(t*I),e[2]+=r*t,e[3]+=i*t),n&&(n=M(n*I),e[0]+=o*n,e[1]+=u*n),this.w=this.s=this.i=null}return this}},{key:"resetSelf",value:function(){var t=arguments.length>0&&void 0!==arguments[0]?arguments[0]:1,n=arguments.length>1&&void 0!==arguments[1]?arguments[1]:0,e=arguments.length>2&&void 0!==arguments[2]?arguments[2]:0,r=arguments.length>3&&void 0!==arguments[3]?arguments[3]:1,i=arguments.length>4&&void 0!==arguments[4]?arguments[4]:0,o=arguments.length>5&&void 0!==arguments[5]?arguments[5]:0,u=this.m;return u[0]=t,u[1]=n,u[2]=e,u[3]=r,u[4]=i,u[5]=o,this.w=this.s=this.i=null,this}},{key:"recomposeSelf",value:function(){var t=arguments.length>0&&void 0!==arguments[0]?arguments[0]:null,n=arguments.length>1&&void 0!==arguments[1]?arguments[1]:null,e=arguments.length>2&&void 0!==arguments[2]?arguments[2]:null,r=arguments.length>3&&void 0!==arguments[3]?arguments[3]:null,i=arguments.length>4&&void 0!==arguments[4]?arguments[4]:null;return this.isIdentity||this.resetSelf(),t&&(t.x||t.y)&&this.translateSelf(t.x,t.y),n&&this.rotateSelf(n),e&&(e.x&&this.skewSelf(e.x,0),e.y&&this.skewSelf(0,e.y)),!r||1===r.x&&1===r.y||this.scaleSelf(r.x,r.y),i&&(i.x||i.y)&&this.translateSelf(i.x,i.y),this}},{key:"decompose",value:function(){var t=arguments.length>0&&void 0!==arguments[0]?arguments[0]:0,n=arguments.length>1&&void 0!==arguments[1]?arguments[1]:0,e=this.m,r=e[0]*e[0]+e[1]*e[1],i=[[e[0],e[1]],[e[2],e[3]]],o=F(r);if(0===o)return{origin:{x:d(e[4]),y:d(e[5])},translate:{x:d(t),y:d(n)},scale:{x:0,y:0},skew:{x:0,y:0},rotate:0};i[0][0]/=o,i[0][1]/=o;var u=e[0]*e[3]-e[1]*e[2]<0;u&&(o=-o);var a=i[0][0]*i[1][0]+i[0][1]*i[1][1];i[1][0]-=i[0][0]*a,i[1][1]-=i[0][1]*a;var l=F(i[1][0]*i[1][0]+i[1][1]*i[1][1]);if(0===l)return{origin:{x:d(e[4]),y:d(e[5])},translate:{x:d(t),y:d(n)},scale:{x:d(o),y:0},skew:{x:0,y:0},rotate:0};i[1][0]/=l,i[1][1]/=l,a/=l;var s=0;return i[1][1]<0?(s=j(i[1][1])*R,i[0][1]<0&&(s=360-s)):s=E(i[0][1])*R,u&&(s=-s),a=P(a,F(i[0][0]*i[0][0]+i[0][1]*i[0][1]))*R,u&&(a=-a),{origin:{x:d(e[4]),y:d(e[5])},translate:{x:d(t),y:d(n)},scale:{x:d(o),y:d(l)},skew:{x:d(a),y:0},rotate:d(s)}}},{key:"clone",value:function(){var t=this.m;return new this.constructor(t[0],t[1],t[2],t[3],t[4],t[5])}},{key:"toString",value:function(){var t=arguments.length>0&&void 0!==arguments[0]?arguments[0]:" ";if(null===this.s){var n=this.m.map((function(t){return d(t)}));1===n[0]&&0===n[1]&&0===n[2]&&1===n[3]?this.s="translate("+n[4]+t+n[5]+")":this.s="matrix("+n.join(t)+")"}return this.s}}],[{key:"create",value:function(t){return t?Array.isArray(t)?f(this,v(t)):t instanceof this?t.clone():(new this).recomposeSelf(t.origin,t.rotate,t.skew,t.scale,t.translate):new this}}]),t}();function T(t,n,e){return t>=.5?e:n}function q(t,n,e){return 0===t||n===e?n:t*(e-n)+n}function B(t,n,e){var r=q(t,n,e);return r<=0?0:r}function D(t,n,e){var r=q(t,n,e);return r<=0?0:r>=1?1:r}function L(t,n,e){return 0===t?n:1===t?e:{x:q(t,n.x,e.x),y:q(t,n.y,e.y)}}function C(t,n,e){var r=function(t,n,e){return Math.round(q(t,n,e))}(t,n,e);return r<=0?0:r>=255?255:r}function V(t,n,e){return 0===t?n:1===t?e:{r:C(t,n.r,e.r),g:C(t,n.g,e.g),b:C(t,n.b,e.b),a:q(t,null==n.a?1:n.a,null==e.a?1:e.a)}}function G(t,n){for(var e=[],r=0;r<t;r++)e.push(n);return e}function z(t,n){if(--n<=0)return t;var e=(t=Object.assign([],t)).length;do{for(var r=0;r<e;r++)t.push(t[r])}while(--n>0);return t}var Y,$=function(){function t(n){r(this,t),this.list=n,this.length=n.length}return o(t,[{key:"setAttribute",value:function(t,n){for(var e=this.list,r=0;r<this.length;r++)e[r].setAttribute(t,n)}},{key:"removeAttribute",value:function(t){for(var n=this.list,e=0;e<this.length;e++)n[e].removeAttribute(t)}},{key:"style",value:function(t,n){for(var e=this.list,r=0;r<this.length;r++)e[r].style[t]=n}}]),t}(),U=/-./g,Q=function(t,n){return n.toUpperCase()};function H(t){return"function"==typeof t?t:T}function J(t){return t?"function"==typeof t?t:Array.isArray(t)?function(t){var n=arguments.length>1&&void 0!==arguments[1]?arguments[1]:b;if(!Array.isArray(t))return n;switch(t.length){case 1:return k(t[0])||n;case 2:return k(t[0],t[1])||n;case 4:return A(t[0],t[1],t[2],t[3])||n}return n}(t,null):function(t,n){var e=arguments.length>2&&void 0!==arguments[2]?arguments[2]:b;switch(t){case"linear":return b;case"steps":return k(n.steps||1,n.jump||0)||e;case"bezier":case"cubic-bezier":return A(n.x1||0,n.y1||0,n.x2||0,n.y2||0)||e}return e}(t.type,t.value,null):null}function Z(t,n,e){var r=arguments.length>3&&void 0!==arguments[3]&&arguments[3],i=n.length-1;if(t<=n[0].t)return r?[0,0,n[0].v]:n[0].v;if(t>=n[i].t)return r?[i,1,n[i].v]:n[i].v;var o,u=n[0],a=null;for(o=1;o<=i;o++){if(!(t>n[o].t)){a=n[o];break}u=n[o]}return null==a?r?[i,1,n[i].v]:n[i].v:u.t===a.t?r?[o,1,a.v]:a.v:(t=(t-u.t)/(a.t-u.t),u.e&&(t=u.e(t)),r?[o,t,e(t,u.v,a.v)]:e(t,u.v,a.v))}function K(t,n){var e=arguments.length>2&&void 0!==arguments[2]?arguments[2]:null;return t&&t.length?"function"!=typeof n?null:("function"!=typeof e&&(e=null),function(r){var i=Z(r,t,n);return null!=i&&e&&(i=e(i)),i}):null}function W(t,n){return t.t-n.t}function X(t,n,r,i,o){var u,a="@"===r[0],l="#"===r[0],s=Y[r],f=T;switch(a?(u=r.substr(1),r=u.replace(U,Q)):l&&(r=r.substr(1)),e(s)){case"function":if(f=s(i,o,Z,J,r,a,n,t),l)return f;break;case"string":f=K(i,H(s));break;case"object":if((f=K(i,H(s.i),s.f))&&"function"==typeof s.u)return s.u(n,f,r,a,t)}return f?function(t,n,e){if(arguments.length>3&&void 0!==arguments[3]&&arguments[3])return t instanceof $?function(r){return t.style(n,e(r))}:function(r){return t.style[n]=e(r)};if(Array.isArray(n)){var r=n.length;return function(i){var o=e(i);if(null==o)for(var u=0;u<r;u++)t[u].removeAttribute(n);else for(var a=0;a<r;a++)t[a].setAttribute(n,o)}}return function(r){var i=e(r);null==i?t.removeAttribute(n):t.setAttribute(n,i)}}(n,r,f,a):null}function tt(t,n,r,i){if(!i||"object"!==e(i))return null;var o=null,u=null;return Array.isArray(i)?u=function(t){if(!t||!t.length)return null;for(var n=0;n<t.length;n++)t[n].e&&(t[n].e=J(t[n].e));return t.sort(W)}(i):(u=i.keys,o=i.data||null),u?X(t,n,r,u,o):null}function nt(t,n,e){if(!e)return null;var r=[];for(var i in e)if(e.hasOwnProperty(i)){var o=tt(t,n,i,e[i]);o&&r.push(o)}return r.length?r:null}function et(t,n){if(!n.settings.duration||n.settings.duration<0)return null;var e,r,i,o,u,a=function(t,n){if(!n)return null;var e=[];if(Array.isArray(n))for(var r=n.length,i=0;i<r;i++){var o=n[i];if(2===o.length){var u=null;if("string"==typeof o[0])u=t.getElementById(o[0]);else if(Array.isArray(o[0])){u=[];for(var a=0;a<o[0].length;a++)if("string"==typeof o[0][a]){var l=t.getElementById(o[0][a]);l&&u.push(l)}u=u.length?1===u.length?u[0]:new $(u):null}if(u){var s=nt(t,u,o[1]);s&&(e=e.concat(s))}}}else for(var f in n)if(n.hasOwnProperty(f)){var c=t.getElementById(f);if(c){var h=nt(t,c,n[f]);h&&(e=e.concat(h))}}return e.length?e:null}(t,n.elements);return a?(e=a,r=n.settings,i=r.duration,o=e.length,u=null,function(t,n){var a=r.iterations||1/0,l=(r.alternate&&a%2==0)^r.direction>0?i:0,s=t%i,f=1+(t-s)/i;n*=r.direction,r.alternate&&f%2==0&&(n=-n);var c=!1;if(f>a)s=l,c=!0,-1===r.fill&&(s=r.direction>0?0:i);else if(n<0&&(s=i-s),s===u)return!1;u=s;for(var h=0;h<o;h++)e[h](s);return c}):null}function rt(t,n){for(var e=n.querySelectorAll("svg"),r=0;r<e.length;r++)if(e[r].id===t.root&&!e[r].svgatorAnimation)return e[r].svgatorAnimation=!0,e[r];return null}function it(t){var n=function(t){return t.shadowRoot};return document?Array.from(t.querySelectorAll(":not("+["a","area","audio","br","canvas","circle","datalist","embed","g","head","hr","iframe","img","input","link","object","path","polygon","rect","script","source","style","svg","title","track","video"].join()+")")).filter(n).map(n):[]}function ot(t){var n=arguments.length>1&&void 0!==arguments[1]?arguments[1]:document,e=arguments.length>2&&void 0!==arguments[2]?arguments[2]:0,r=rt(t,n);if(r)return r;if(e>=20)return null;for(var i=it(n),o=0;o<i.length;o++){var u=ot(t,i[o],e+1);if(u)return u}return null}function ut(t,n){if(Y=n,!t||!t.root||!Array.isArray(t.animations))return null;var e=ot(t);if(!e)return null;var r=t.animations.map((function(t){return et(e,t)})).filter((function(t){return!!t}));return r.length?{svg:e,animations:r,animationSettings:t.animationSettings,options:t.options||void 0}:null}function at(t){var n=arguments.length>1&&void 0!==arguments[1]?arguments[1]:null,e=arguments.length>2&&void 0!==arguments[2]?arguments[2]:Number,r=arguments.length>3&&void 0!==arguments[3]?arguments[3]:"undefined"!=typeof BigInt&&BigInt,i="0x"+(t.replace(/[^0-9a-fA-F]+/g,"")||27);return n&&r&&e.isSafeInteger&&!e.isSafeInteger(+i)?e(r(i))%n+n:+i}function lt(t,n,e){return!t||!e||n>t.length?t:t.substring(0,n)+lt(t.substring(n+1),e,e)}function st(t){var n=arguments.length>1&&void 0!==arguments[1]?arguments[1]:27;return!t||t%n?t%n:[0,1].includes(n)?n:st(t/n,n)}function ft(t,n,e){if(t&&t.length){var r=at(e),i=st(r)+5,o=lt(t,st(r,5),i);return o=o.replace(/\x7c$/g,"==").replace(/\x2f$/g,"="),o=function(t,n,e){var r=+("0x"+t.substring(0,4));t=t.substring(4);for(var i=at(n,r)%r+e%27,o=[],u=0;u<t.length;u+=2)if("|"!==t[u]){var a=+("0x"+t[u]+t[u+1])-i;o.push(a)}else{var l=+("0x"+t.substring(u+1,u+1+4))-i;u+=3,o.push(l)}return String.fromCharCode.apply(String,o)}(o=(o=atob(o)).replace(/[\x41-\x5A]/g,""),n,r),o=JSON.parse(o)}}var ct=[{key:"alternate",def:!1},{key:"fill",def:1},{key:"iterations",def:0},{key:"direction",def:1},{key:"speed",def:1},{key:"fps",def:100}],ht=function(){function t(n,e){var i=this,o=arguments.length>2&&void 0!==arguments[2]?arguments[2]:null;r(this,t),this._id=0,this._running=!1,this._rollingBack=!1,this._animations=n,this._settings=e,(!o||o<"2022-05-02")&&delete this._settings.speed,ct.forEach((function(t){i._settings[t.key]=i._settings[t.key]||t.def})),this.duration=e.duration,this.offset=e.offset||0,this.rollbackStartOffset=0}return o(t,[{key:"alternate",get:function(){return this._settings.alternate}},{key:"fill",get:function(){return this._settings.fill}},{key:"iterations",get:function(){return this._settings.iterations}},{key:"direction",get:function(){return this._settings.direction}},{key:"speed",get:function(){return this._settings.speed}},{key:"fps",get:function(){return this._settings.fps}},{key:"maxFiniteDuration",get:function(){return this.iterations>0?this.iterations*this.duration:this.duration}},{key:"_apply",value:function(t){for(var n=arguments.length>1&&void 0!==arguments[1]?arguments[1]:{},e=this._animations,r=e.length,i=0,o=0;o<r;o++)n[o]?i++:(n[o]=e[o](t,1),n[o]&&i++);return i}},{key:"_rollback",value:function(t){var n=this,e=1/0,r=null;this.rollbackStartOffset=t,this._rollingBack=!0,this._running=!0;this._id=window.requestAnimationFrame((function i(o){if(n._rollingBack){null==r&&(r=o);var u=Math.round(t-(o-r)*n.speed);if(u>n.duration&&e!==1/0){var a=!!n.alternate&&u/n.duration%2>1,l=u%n.duration;u=(l+=a?n.duration:0)||n.duration}var s=(n.fps?1e3/n.fps:0)*n.speed,f=Math.max(0,u);f<=e-s&&(n.offset=f,e=f,n._apply(f));var c=n.iterations>0&&-1===n.fill&&u>=n.maxFiniteDuration;(u<=0||n.offset<u||c)&&n.stop(),n._id=window.requestAnimationFrame(i)}}))}},{key:"_start",value:function(){var t=this,n=arguments.length>0&&void 0!==arguments[0]?arguments[0]:0,e=-1/0,r=null,i={};this._running=!0;var o=function o(u){null==r&&(r=u);var a=Math.round((u-r)*t.speed+n),l=(t.fps?1e3/t.fps:0)*t.speed;if(a>=e+l&&!t._rollingBack&&(t.offset=a,e=a,t._apply(a,i)===t._animations.length))return void t.pause(!0);t._id=window.requestAnimationFrame(o)};this._id=window.requestAnimationFrame(o)}},{key:"_pause",value:function(){this._id&&window.cancelAnimationFrame(this._id),this._running=!1}},{key:"play",value:function(){if(!this._running)return this._rollingBack?this._rollback(this.offset):this._start(this.offset)}},{key:"stop",value:function(){this._pause(),this.offset=0,this.rollbackStartOffset=0,this._rollingBack=!1,this._apply(0)}},{key:"reachedToEnd",value:function(){return this.iterations>0&&this.offset>=this.iterations*this.duration}},{key:"restart",value:function(){var t=arguments.length>0&&void 0!==arguments[0]&&arguments[0];this.stop(t),this.play(t)}},{key:"pause",value:function(){this._pause()}},{key:"reverse",value:function(){this.direction=-this.direction}}],[{key:"build",value:function(t,n){delete t.animationSettings,t.options=ft(t.options,t.root,"5c7f360c"),t.animations.map((function(n){n.settings=ft(n.s,t.root,"5c7f360c"),delete n.s,t.animationSettings||(t.animationSettings=n.settings)}));var e=t.version;if(!(t=ut(t,n)))return null;var r=t.options||{},i=new this(t.animations,t.animationSettings,e);return{el:t.svg,options:r,player:i}}},{key:"push",value:function(t){return this.build(t)}},{key:"init",value:function(){var t=this,n=window.__SVGATOR_PLAYER__&&window.__SVGATOR_PLAYER__["5c7f360c"];Array.isArray(n)&&n.splice(0).forEach((function(n){return t.build(n)}))}}]),t}();function vt(t){return d(t)+""}function yt(t){var n=arguments.length>1&&void 0!==arguments[1]?arguments[1]:" ";return t&&t.length?t.map(vt).join(n):""}function gt(t){if(!t)return"transparent";if(null==t.a||t.a>=1){var n=function(t){return 1===(t=parseInt(t).toString(16)).length?"0"+t:t},e=function(t){return t.charAt(0)===t.charAt(1)},r=n(t.r),i=n(t.g),o=n(t.b);return e(r)&&e(i)&&e(o)&&(r=r.charAt(0),i=i.charAt(0),o=o.charAt(0)),"#"+r+i+o}return"rgba("+t.r+","+t.g+","+t.b+","+t.a+")"}function dt(t){return t?"url(#"+t+")":"none"}!function(){for(var t=0,n=["ms","moz","webkit","o"],e=0;e<n.length&&!window.requestAnimationFrame;++e)window.requestAnimationFrame=window[n[e]+"RequestAnimationFrame"],window.cancelAnimationFrame=window[n[e]+"CancelAnimationFrame"]||window[n[e]+"CancelRequestAnimationFrame"];window.requestAnimationFrame||(window.requestAnimationFrame=function(n){var e=Date.now(),r=Math.max(0,16-(e-t)),i=window.setTimeout((function(){n(e+r)}),r);return t=e+r,i},window.cancelAnimationFrame=window.clearTimeout)}();var pt={f:null,i:function(t,n,e){return 0===t?n:1===t?e:{x:B(t,n.x,e.x),y:B(t,n.y,e.y)}},u:function(t,n){return function(e){var r=n(e);t.setAttribute("rx",vt(r.x)),t.setAttribute("ry",vt(r.y))}}},mt={f:null,i:function(t,n,e){return 0===t?n:1===t?e:{width:B(t,n.width,e.width),height:B(t,n.height,e.height)}},u:function(t,n){return function(e){var r=n(e);t.setAttribute("width",vt(r.width)),t.setAttribute("height",vt(r.height))}}};Object.freeze({M:2,L:2,Z:0,H:1,V:1,C:6,Q:4,T:2,S:4,A:7});var bt={},wt=null;function At(t){var n=function(){if(wt)return wt;if("object"!==("undefined"==typeof document?"undefined":e(document))||!document.createElementNS)return{};var t=document.createElementNS("http://www.w3.org/2000/svg","svg");return t&&t.style?(t.style.position="absolute",t.style.opacity="0.01",t.style.zIndex="-9999",t.style.left="-9999px",t.style.width="1px",t.style.height="1px",wt={svg:t}):{}}().svg;if(!n)return function(t){return null};var r=document.createElementNS(n.namespaceURI,"path");r.setAttributeNS(null,"d",t),r.setAttributeNS(null,"fill","none"),r.setAttributeNS(null,"stroke","none"),n.appendChild(r);var i=r.getTotalLength();return function(t){var n=r.getPointAtLength(i*t);return{x:n.x,y:n.y}}}function _t(t){return bt[t]?bt[t]:bt[t]=At(t)}function xt(t,n,e,r){if(!t||!r)return!1;var i=["M",t.x,t.y];if(n&&e&&(i.push("C"),i.push(n.x),i.push(n.y),i.push(e.x),i.push(e.y)),n?!e:e){var o=n||e;i.push("Q"),i.push(o.x),i.push(o.y)}return n||e||i.push("L"),i.push(r.x),i.push(r.y),i.join(" ")}function kt(t,n,e,r){var i=arguments.length>4&&void 0!==arguments[4]?arguments[4]:1,o=xt(t,n,e,r),u=_t(o);try{return u(i)}catch(t){return null}}function St(t,n,e){return t+(n-t)*e}function Ot(t,n,e){var r=arguments.length>3&&void 0!==arguments[3]&&arguments[3],i={x:St(t.x,n.x,e),y:St(t.y,n.y,e)};return r&&(i.a=jt(t,n)),i}function jt(t,n){return Math.atan2(n.y-t.y,n.x-t.x)}function Et(t,n,e,r){var i=1-r;return i*i*t+2*i*r*n+r*r*e}function Mt(t,n,e,r){return 2*(1-r)*(n-t)+2*r*(e-n)}function Pt(t,n,e,r){var i=arguments.length>4&&void 0!==arguments[4]&&arguments[4],o=kt(t,n,null,e,r);return o||(o={x:Et(t.x,n.x,e.x,r),y:Et(t.y,n.y,e.y,r)}),i&&(o.a=It(t,n,e,r)),o}function It(t,n,e,r){return Math.atan2(Mt(t.y,n.y,e.y,r),Mt(t.x,n.x,e.x,r))}function Rt(t,n,e,r,i){var o=i*i;return i*o*(r-t+3*(n-e))+3*o*(t+e-2*n)+3*i*(n-t)+t}function Ft(t,n,e,r,i){var o=1-i;return 3*(o*o*(n-t)+2*o*i*(e-n)+i*i*(r-e))}function Nt(t,n,e,r,i){var o=arguments.length>5&&void 0!==arguments[5]&&arguments[5],u=kt(t,n,e,r,i);return u||(u={x:Rt(t.x,n.x,e.x,r.x,i),y:Rt(t.y,n.y,e.y,r.y,i)}),o&&(u.a=Tt(t,n,e,r,i)),u}function Tt(t,n,e,r,i){return Math.atan2(Ft(t.y,n.y,e.y,r.y,i),Ft(t.x,n.x,e.x,r.x,i))}function qt(t,n,e){var r=arguments.length>3&&void 0!==arguments[3]&&arguments[3];if(Dt(n)){if(Lt(e))return Pt(n,e.start,e,t,r)}else if(Dt(e)){if(Ct(n))return Pt(n,n.end,e,t,r)}else{if(Ct(n))return Lt(e)?Nt(n,n.end,e.start,e,t,r):Pt(n,n.end,e,t,r);if(Lt(e))return Pt(n,e.start,e,t,r)}return Ot(n,e,t,r)}function Bt(t,n,e){var r=qt(t,n,e,!0);return r.a=function(t){return arguments.length>1&&void 0!==arguments[1]&&arguments[1]?t+Math.PI:t}(r.a)/m,r}function Dt(t){return!t.type||"corner"===t.type}function Lt(t){return null!=t.start&&!Dt(t)}function Ct(t){return null!=t.end&&!Dt(t)}var Vt=new N;var Gt={f:vt,i:q},zt={f:vt,i:D};function Yt(t,n,e){return t.map((function(t){return function(t,n,e){var r=t.v;if(!r||"g"!==r.t||r.s||!r.v||!r.r)return t;var i=e.getElementById(r.r),o=i&&i.querySelectorAll("stop")||[];return r.s=r.v.map((function(t,n){var e=o[n]&&o[n].getAttribute("offset");return{c:t,o:e=d(parseInt(e)/100)}})),delete r.v,t}(t,0,e)}))}var $t={gt:"gradientTransform",c:{x:"cx",y:"cy"},rd:"r",f:{x:"x1",y:"y1"},to:{x:"x2",y:"y2"}};function Ut(t,n,r,i,o,u,a,l){return Yt(t,0,l),n=function(t,n,e){for(var r,i,o,u=t.length-1,a={},l=0;l<=u;l++)(r=t[l]).e&&(r.e=n(r.e)),r.v&&"g"===(i=r.v).t&&i.r&&(o=e.getElementById(i.r))&&(a[i.r]={e:o,s:o.querySelectorAll("stop")});return a}(t,i,l),function(i){var o=r(i,t,Qt);if(!o)return"none";if("c"===o.t)return gt(o.v);if("g"===o.t){if(!n[o.r])return dt(o.r);var u=n[o.r];return function(t,n){for(var e=t.s,r=e.length;r<n.length;r++){var i=e[e.length-1].cloneNode();i.id=Zt(i.id),t.e.appendChild(i),e=t.s=t.e.querySelectorAll("stop")}for(var o=0,u=e.length,a=n.length-1;o<u;o++)e[o].setAttribute("stop-color",gt(n[Math.min(o,a)].c)),e[o].setAttribute("offset",n[Math.min(o,a)].o)}(u,o.s),Object.keys($t).forEach((function(t){if(void 0!==o[t])if("object"!==e($t[t])){var n,r="gt"===t?(n=o[t],Array.isArray(n)?"matrix("+n.join(" ")+")":""):o[t],i=$t[t];u.e.setAttribute(i,r)}else Object.keys($t[t]).forEach((function(n){if(void 0!==o[t][n]){var e=o[t][n],r=$t[t][n];u.e.setAttribute(r,e)}}))})),dt(o.r)}return"none"}}function Qt(t,e,r){if(0===t)return e;if(1===t)return r;if(e&&r){var i=e.t;if(i===r.t)switch(e.t){case"c":return{t:i,v:V(t,e.v,r.v)};case"g":if(e.r===r.r){var o={t:i,s:Ht(t,e.s,r.s),r:e.r};return e.gt&&r.gt&&(o.gt=function(t,n,e){var r=n.length;if(r!==e.length)return T(t,n,e);for(var i=new Array(r),o=0;o<r;o++)i[o]=q(t,n[o],e[o]);return i}(t,e.gt,r.gt)),e.c?(o.c=L(t,e.c,r.c),o.rd=B(t,e.rd,r.rd)):e.f&&(o.f=L(t,e.f,r.f),o.to=L(t,e.to,r.to)),o}}if("c"===e.t&&"g"===r.t||"c"===r.t&&"g"===e.t){var u="c"===e.t?e:r,a="g"===e.t?n({},e):n({},r),l=a.s.map((function(t){return{c:u.v,o:t.o}}));return a.s="c"===e.t?Ht(t,l,a.s):Ht(t,a.s,l),a}}return T(t,e,r)}function Ht(t,n,e){if(n.length===e.length)return n.map((function(n,r){return Jt(t,n,e[r])}));for(var r=Math.max(n.length,e.length),i=[],o=0;o<r;o++){var u=Jt(t,n[Math.min(o,n.length-1)],e[Math.min(o,e.length-1)]);i.push(u)}return i}function Jt(t,n,e){return{o:D(t,n.o,e.o||0),c:V(t,n.c,e.c||{})}}function Zt(t){return t.replace(/-fill-([0-9]+)$/,(function(t,n){return"-fill-"+(+n+1)}))}var Kt={fill:Ut,"fill-opacity":zt,stroke:Ut,"stroke-opacity":zt,"stroke-width":Gt,"stroke-dashoffset":{f:vt,i:q},"stroke-dasharray":{f:function(t){var n=arguments.length>1&&void 0!==arguments[1]?arguments[1]:" ";return t&&t.length>0&&(t=t.map((function(t){return d(t,4)}))),yt(t,n)},i:function(t,n,e){var r,i,o,u=n.length,a=e.length;if(u!==a)if(0===u)n=G(u=a,0);else if(0===a)a=u,e=G(u,0);else{var l=(o=(r=u)*(i=a)/function(t,n){for(var e;n;)e=n,n=t%n,t=e;return t||1}(r,i))<0?-o:o;n=z(n,Math.floor(l/u)),e=z(e,Math.floor(l/a)),u=a=l}for(var s=[],f=0;f<u;f++)s.push(d(B(t,n[f],e[f])));return s}},opacity:zt,transform:function(t,n,r,i){if(!(t=function(t,n){if(!t||"object"!==e(t))return null;var r=!1;for(var i in t)t.hasOwnProperty(i)&&(t[i]&&t[i].length?(t[i].forEach((function(t){t.e&&(t.e=n(t.e))})),r=!0):delete t[i]);return r?t:null}(t,i)))return null;var o=function(e,i,o){var u=arguments.length>3&&void 0!==arguments[3]?arguments[3]:null;return t[e]?r(i,t[e],o):n&&n[e]?n[e]:u};return n&&n.a&&t.o?function(n){var e=r(n,t.o,Bt);return Vt.recomposeSelf(e,o("r",n,q,0)+e.a,o("k",n,L),o("s",n,L),o("t",n,L)).toString()}:function(t){return Vt.recomposeSelf(o("o",t,qt,null),o("r",t,q,0),o("k",t,L),o("s",t,L),o("t",t,L)).toString()}},r:Gt,"#size":mt,"#radius":pt,_:function(t,n){if(Array.isArray(t))for(var e=0;e<t.length;e++)this[t[e]]=n;else this[t]=n}},Wt=function(t){!function(t,n){if("function"!=typeof n&&null!==n)throw new TypeError("Super expression must either be null or a function");t.prototype=Object.create(n&&n.prototype,{constructor:{value:t,writable:!0,configurable:!0}}),n&&l(t,n)}(u,t);var n,e,i=(n=u,e=s(),function(){var t,r=a(n);if(e){var i=a(this).constructor;t=Reflect.construct(r,arguments,i)}else t=r.apply(this,arguments);return c(this,t)});function u(){return r(this,u),i.apply(this,arguments)}return o(u,null,[{key:"build",value:function(t){var n=h(a(u),"build",this).call(this,t,Kt);if(!n)return null;n.el,n.options,function(t,n,e){t.play()}(n.player)}}]),u}(ht);return Wt.init(),Wt}));
(function(s,i,o,w,d,a,b){w[o]=w[o]||{};w[o][s]=w[o][s]||[];w[o][s].push(i);})('5c7f360c',{"root":"ePLF1RO57bJ1","version":"2022-05-04","animations":[{"elements":{"ePLF1RO57bJ3":{"transform":{"data":{"o":{"x":124.992996,"y":124.992996,"type":"corner"},"t":{"x":-124.992996,"y":-124.992996}},"keys":{"r":[{"t":0,"v":0},{"t":7000,"v":359.999999}]}}},"ePLF1RO57bJ34":{"transform":{"data":{"o":{"x":124.9977,"y":124.992851,"type":"corner"},"t":{"x":-124.9977,"y":-124.992851}},"keys":{"r":[{"t":0,"v":0},{"t":7000,"v":-359.999996}]}}}},"s":"MSDA1ZGMzNmFhY2JkYmFFhOWJjQ2IxYjdHYjYO2YTgyN2Y3ODc4Nzg3QNDZhYWNiMWJhT2FkYRWJiY2IxYjdiNjZhODGI3OTc0NmFiMWJjYWRWiYWE5YmNiMWI3YjZiKYjZhODJINzhVNzQ2YHWFlYjFiNENiNDZhSTKgyNzk3NDZhYTliNGJFjYWRiYUtiNmE5YmNhGZDZhODJhZWE5YjRTYWmJOYWQ3NDZhYmJiOGAFkYWRhY0U2YTgyNzkF3NDZhYWViOGJiNmFHHODI3OTc4Rjc4YzU/"}],"options":"MFDAxMDg4MmY4MDgxNmBU3ZjgxMmZBNDcyZjcT5N2M2ZTcxMmY4YQ|"},'__SVGATOR_PLAYER__',window,document)
]]></script>
</svg>